<svg xmlns="http://www.w3.org/2000/svg" width="1240" height="538" viewBox="0 0 1240 538" font-family="'Helvetica Neue', Helvetica, Arial, sans-serif"><rect width="1240" height="538" fill="#FFFFFF"/><defs><marker id="ah" markerWidth="11" markerHeight="11" refX="8" refY="3.2" orient="auto" markerUnits="userSpaceOnUse"><path d="M0,0 L8,3.2 L0,6.4 Z" fill="#5A6472"/></marker><marker id="ahs" markerWidth="11" markerHeight="11" refX="0" refY="3.2" orient="auto" markerUnits="userSpaceOnUse"><path d="M8,0 L0,3.2 L8,6.4 Z" fill="#5A6472"/></marker><filter id="ds" x="-20%" y="-20%" width="140%" height="140%"><feDropShadow dx="0" dy="1.5" stdDeviation="1.6" flood-color="#1B2330" flood-opacity="0.16"/></filter></defs><g transform="translate(0,-122)"><rect x="548" y="178" width="232" height="120" rx="16" ry="16" fill="none" stroke="#AAB2BF" stroke-width="1.4" stroke-dasharray="6 5"/><text x="562" y="200" font-family="'Helvetica Neue', Helvetica, Arial, sans-serif" font-size="13" font-weight="600" fill="#5A6472" text-anchor="start">App under test</text><rect x="40" y="200" width="180" height="74" rx="12" ry="12" fill="#EAF2FF" stroke="#2F6FED" stroke-width="1.6" filter="url(#ds)"/><text x="130.0" y="233.5" font-family="'Helvetica Neue', Helvetica, Arial, sans-serif" font-size="14" font-weight="600" fill="#0B2A6B" text-anchor="middle">golden_dataset</text><text x="130.0" y="250.5" font-family="'Helvetica Neue', Helvetica, Arial, sans-serif" font-size="14" font-weight="400" fill="#0B2A6B" text-anchor="middle">.json</text><rect x="280" y="198" width="210" height="78" rx="12" ry="12" fill="#EAF7EE" stroke="#2E9E5B" stroke-width="1.6" filter="url(#ds)"/><text x="385.0" y="233.5" font-family="'Helvetica Neue', Helvetica, Arial, sans-serif" font-size="14" font-weight="600" fill="#0B3D1F" text-anchor="middle">Eval runner</text><text x="385.0" y="250.5" font-family="'Helvetica Neue', Helvetica, Arial, sans-serif" font-size="14" font-weight="400" fill="#0B3D1F" text-anchor="middle">run_*_eval.py</text><rect x="568" y="208" width="192" height="64" rx="12" ry="12" fill="#EAF7EE" stroke="#2E9E5B" stroke-width="1.6" filter="url(#ds)"/><text x="664.0" y="236.5" font-family="'Helvetica Neue', Helvetica, Arial, sans-serif" font-size="14" font-weight="600" fill="#0B3D1F" text-anchor="middle">app pipeline</text><text x="664.0" y="253.5" font-family="'Helvetica Neue', Helvetica, Arial, sans-serif" font-size="14" font-weight="400" fill="#0B3D1F" text-anchor="middle">Box MCP + Gemini</text><rect x="842" y="198" width="180" height="78" rx="12" ry="12" fill="#EAF7EE" stroke="#2E9E5B" stroke-width="1.6" filter="url(#ds)"/><text x="932.0" y="233.5" font-family="'Helvetica Neue', Helvetica, Arial, sans-serif" font-size="14" font-weight="600" fill="#0B3D1F" text-anchor="middle">scorers.py</text><text x="932.0" y="250.5" font-family="'Helvetica Neue', Helvetica, Arial, sans-serif" font-size="14" font-weight="400" fill="#0B3D1F" text-anchor="middle">metrics</text><rect x="1042" y="200" width="178" height="74" rx="12" ry="12" fill="#EAF2FF" stroke="#2F6FED" stroke-width="1.6" filter="url(#ds)"/><text x="1131.0" y="233.5" font-family="'Helvetica Neue', Helvetica, Arial, sans-serif" font-size="14" font-weight="600" fill="#0B2A6B" text-anchor="middle">results/</text><text x="1131.0" y="250.5" font-family="'Helvetica Neue', Helvetica, Arial, sans-serif" font-size="14" font-weight="400" fill="#0B2A6B" text-anchor="middle">*_eval_results.json</text><rect x="842" y="360" width="180" height="64" rx="12" ry="12" fill="#EAF7EE" stroke="#2E9E5B" stroke-width="1.6" filter="url(#ds)"/><text x="932.0" y="388.5" font-family="'Helvetica Neue', Helvetica, Arial, sans-serif" font-size="14" font-weight="600" fill="#0B3D1F" text-anchor="middle">schema.py</text><text x="932.0" y="405.5" font-family="'Helvetica Neue', Helvetica, Arial, sans-serif" font-size="14" font-weight="400" fill="#0B3D1F" text-anchor="middle">pydantic validation</text><rect x="280" y="360" width="210" height="60" rx="12" ry="12" fill="#EAF7EE" stroke="#2E9E5B" stroke-width="1.6" filter="url(#ds)"/><text x="385.0" y="395.0" font-family="'Helvetica Neue', Helvetica, Arial, sans-serif" font-size="14" font-weight="600" fill="#0B3D1F" text-anchor="middle">tracing.py</text><rect x="280" y="470" width="210" height="64" rx="12" ry="12" fill="#EAF2FF" stroke="#2F6FED" stroke-width="1.6" filter="url(#ds)"/><text x="385.0" y="498.5" font-family="'Helvetica Neue', Helvetica, Arial, sans-serif" font-size="14" font-weight="600" fill="#0B2A6B" text-anchor="middle">results/</text><text x="385.0" y="515.5" font-family="'Helvetica Neue', Helvetica, Arial, sans-serif" font-size="14" font-weight="400" fill="#0B2A6B" text-anchor="middle">*_traces.json</text><rect x="1012" y="360" width="208" height="60" rx="12" ry="12" fill="#EAF7EE" stroke="#2E9E5B" stroke-width="1.6" filter="url(#ds)"/><text x="1116.0" y="395.0" font-family="'Helvetica Neue', Helvetica, Arial, sans-serif" font-size="14" font-weight="600" fill="#0B3D1F" text-anchor="middle">report_eval_results.py</text><rect x="1012" y="470" width="208" height="64" rx="12" ry="12" fill="#EAF2FF" stroke="#2F6FED" stroke-width="1.6" filter="url(#ds)"/><text x="1116.0" y="498.5" font-family="'Helvetica Neue', Helvetica, Arial, sans-serif" font-size="14" font-weight="600" fill="#0B2A6B" text-anchor="middle">metric summary</text><text x="1116.0" y="515.5" font-family="'Helvetica Neue', Helvetica, Arial, sans-serif" font-size="14" font-weight="400" fill="#0B2A6B" text-anchor="middle">table</text><line x1="220" y1="237.0" x2="280" y2="237.0" stroke="#5A6472" stroke-width="1.8" marker-end="url(#ah)"/><rect x="226.25" y="226.0" width="47.5" height="19" rx="5" fill="#FFFFFF" stroke="#E3E7EE" stroke-width="1"/><text x="250.0" y="240.0" font-family="'Helvetica Neue', Helvetica, Arial, sans-serif" font-size="12" font-weight="400" fill="#3A424E" text-anchor="middle">cases</text><line x1="490" y1="237.0" x2="568" y2="240.0" stroke="#5A6472" stroke-width="1.8" marker-end="url(#ah)" marker-start="url(#ahs)"/><rect x="449.1" y="157" width="139.8" height="19" rx="5" fill="#FFFFFF" stroke="#E3E7EE" stroke-width="1"/><text x="519" y="171" font-family="'Helvetica Neue', Helvetica, Arial, sans-serif" font-size="12" font-weight="400" fill="#3A424E" text-anchor="middle">invoke · predicted</text><line x1="760" y1="240.0" x2="842" y2="237.0" stroke="#5A6472" stroke-width="1.8" marker-end="url(#ah)"/><rect x="735.0" y="157" width="154.0" height="19" rx="5" fill="#FFFFFF" stroke="#E3E7EE" stroke-width="1"/><text x="812" y="171" font-family="'Helvetica Neue', Helvetica, Arial, sans-serif" font-size="12" font-weight="400" fill="#3A424E" text-anchor="middle">predicted + expected</text><line x1="1022" y1="237.0" x2="1042" y2="237.0" stroke="#5A6472" stroke-width="1.8" marker-end="url(#ah)"/><rect x="1004.7" y="226.0" width="54.599999999999994" height="19" rx="5" fill="#FFFFFF" stroke="#E3E7EE" stroke-width="1"/><text x="1032.0" y="240.0" font-family="'Helvetica Neue', Helvetica, Arial, sans-serif" font-size="12" font-weight="400" fill="#3A424E" text-anchor="middle">scores</text><polyline points="385.0,198 385.0,150 932.0,150 932.0,198" fill="none" stroke="#5A6472" stroke-width="1.8" marker-end="url(#ah)" stroke-dasharray="6 5"/><rect x="516.85" y="139" width="246.29999999999998" height="19" rx="5" fill="#FFFFFF" stroke="#E3E7EE" stroke-width="1"/><text x="640" y="153" font-family="'Helvetica Neue', Helvetica, Arial, sans-serif" font-size="12" font-weight="400" fill="#3A424E" text-anchor="middle">--mock · mock_predicted (offline)</text><line x1="932.0" y1="360" x2="932.0" y2="276" stroke="#5A6472" stroke-width="1.8" marker-end="url(#ah)" marker-start="url(#ahs)"/><rect x="872.75" y="307.0" width="118.5" height="19" rx="5" fill="#FFFFFF" stroke="#E3E7EE" stroke-width="1"/><text x="932.0" y="321.0" font-family="'Helvetica Neue', Helvetica, Arial, sans-serif" font-size="12" font-weight="400" fill="#3A424E" text-anchor="middle">schema validity</text><line x1="385.0" y1="276" x2="385.0" y2="360" stroke="#5A6472" stroke-width="1.8" marker-end="url(#ah)"/><rect x="361.25" y="307.0" width="47.5" height="19" rx="5" fill="#FFFFFF" stroke="#E3E7EE" stroke-width="1"/><text x="385.0" y="321.0" font-family="'Helvetica Neue', Helvetica, Arial, sans-serif" font-size="12" font-weight="400" fill="#3A424E" text-anchor="middle">steps</text><line x1="385.0" y1="420" x2="385.0" y2="470" stroke="#5A6472" stroke-width="1.8" marker-end="url(#ah)"/><line x1="1131.0" y1="274" x2="1116.0" y2="360" stroke="#5A6472" stroke-width="1.8" marker-end="url(#ah)"/><line x1="1116.0" y1="420" x2="1116.0" y2="470" stroke="#5A6472" stroke-width="1.8" marker-end="url(#ah)"/><rect x="1088.7" y="434.0" width="54.599999999999994" height="19" rx="5" fill="#FFFFFF" stroke="#E3E7EE" stroke-width="1"/><text x="1116.0" y="448.0" font-family="'Helvetica Neue', Helvetica, Arial, sans-serif" font-size="12" font-weight="400" fill="#3A424E" text-anchor="middle">render</text><text x="40" y="611" font-family="'Helvetica Neue', Helvetica, Arial, sans-serif" font-size="12" font-weight="600" fill="#6B7480" text-anchor="start">Legend</text><rect x="40" y="614" width="16" height="16" rx="4" ry="4" fill="#EAF2FF" stroke="#2F6FED" stroke-width="1.4"/><text x="62" y="627" font-family="'Helvetica Neue', Helvetica, Arial, sans-serif" font-size="12" font-weight="400" fill="#3A424E" text-anchor="start">Input / Output</text><rect x="199.60000000000002" y="614" width="16" height="16" rx="4" ry="4" fill="#EAF7EE" stroke="#2E9E5B" stroke-width="1.4"/><text x="221.60000000000002" y="627" font-family="'Helvetica Neue', Helvetica, Arial, sans-serif" font-size="12" font-weight="400" fill="#3A424E" text-anchor="start">Application code</text><rect x="374.0" y="614" width="16" height="16" rx="4" ry="4" fill="#F1ECFB" stroke="#7E57C2" stroke-width="1.4"/><text x="396.0" y="627" font-family="'Helvetica Neue', Helvetica, Arial, sans-serif" font-size="12" font-weight="400" fill="#3A424E" text-anchor="start">ADK LlmAgent</text><rect x="518.8" y="614" width="16" height="16" rx="4" ry="4" fill="#FDECEC" stroke="#E0524D" stroke-width="1.4"/><text x="540.8" y="627" font-family="'Helvetica Neue', Helvetica, Arial, sans-serif" font-size="12" font-weight="400" fill="#3A424E" text-anchor="start">Gemini LLM</text><rect x="648.8" y="614" width="16" height="16" rx="4" ry="4" fill="#FFF6E5" stroke="#E8A317" stroke-width="1.4"/><text x="670.8" y="627" font-family="'Helvetica Neue', Helvetica, Arial, sans-serif" font-size="12" font-weight="400" fill="#3A424E" text-anchor="start">Box MCP tool</text></g></svg>